# xmcd
#
# Track frame offsets: 
#        150
#        12514
#        27068
#        39238
#        53352
#        70826
#        86664
#        100278
#        122720
#
# Disc length: 1849 seconds
#
# Revision: 0
# Processed by: cddbd v1.5.2PL0 Copyright (c) Steve Scherf et al.
# Submitted via: ExactAudioCopy v0.99pb5
#
DISCID=66073709
DTITLE=Waylo Jennings&Willie Nelson - Take It to The Limit
DYEAR=1983
DGENRE=Country
TTITLE0=No Love At All
TTITLE1=Why Do I Have To Choose
TTITLE2=Why Baby Why
TTITLE3=We Had It All
TTITLE4=Take It To The Limit
TTITLE5=Homeward Bound
TTITLE6=Blackjack County Chains
TTITLE7=Till I Gain Control Again
TTITLE8=Old Friends
EXTD=
EXTT0=
EXTT1=
EXTT2=
EXTT3=
EXTT4=
EXTT5=
EXTT6=
EXTT7=
EXTT8=
PLAYORDER=
